<svg width="153" height="54" viewBox="0 0 153 54" fill="none" xmlns="http://www.w3.org/2000/svg">
<path d="M19.96 15.984C20.984 15.984 21.784 16.272 22.36 16.848C22.968 17.424 23.272 18.224 23.272 19.248C23.272 19.504 23.256 19.776 23.224 20.064C23.192 20.32 23.128 20.544 23.032 20.736C22.616 20.672 22.152 20.624 21.64 20.592C21.128 20.528 20.52 20.496 19.816 20.496C18.376 20.496 16.936 20.624 15.496 20.88C14.056 21.136 12.68 21.344 11.368 21.504C9.928 24.896 8.744 28.08 7.816 31.056C6.888 34.032 6.168 36.976 5.656 39.888C4.568 39.632 3.608 39.168 2.776 38.496C1.944 37.824 1.16 36.88 0.424 35.664C0.648 35.152 0.92 34.544 1.24 33.84C1.56 33.104 1.944 32.192 2.392 31.104C2.84 29.984 3.368 28.64 3.976 27.072C4.616 25.472 5.368 23.568 6.232 21.36C4.888 20.912 4.008 20.128 3.592 19.008C3.752 18.848 4.2 18.672 4.936 18.48C5.672 18.256 6.568 18.016 7.624 17.76C8.104 16.512 8.52 15.408 8.872 14.448C9.224 13.456 9.544 12.528 9.832 11.664C10.12 10.768 10.376 9.904 10.6 9.072C10.856 8.208 11.08 7.296 11.272 6.336H11.032C9.816 6.336 8.824 6.048 8.056 5.472C7.32 4.896 6.952 4.144 6.952 3.216C6.952 2.96 6.984 2.656 7.048 2.304C7.144 1.952 7.256 1.648 7.384 1.392C7.992 1.488 8.584 1.552 9.16 1.584C9.768 1.616 10.552 1.632 11.512 1.632C13.528 1.632 15.416 1.584 17.176 1.488C18.936 1.36 20.52 1.232 21.928 1.104C23.368 0.975999 24.6 0.863999 25.624 0.767999C26.648 0.639998 27.432 0.575998 27.976 0.575998C28.712 0.575998 29.368 0.959998 29.944 1.728C30.52 2.496 30.968 3.584 31.288 4.992C30.264 4.896 29.432 4.832 28.792 4.8C28.184 4.768 27.64 4.752 27.16 4.752C25.528 4.752 24.024 4.832 22.648 4.992C21.304 5.12 20.024 5.28 18.808 5.472C18.616 5.76 18.392 6.128 18.136 6.576C17.912 7.024 17.608 7.664 17.224 8.496C16.84 9.296 16.344 10.352 15.736 11.664C15.16 12.976 14.424 14.64 13.528 16.656C14.776 16.464 15.96 16.304 17.08 16.176C18.232 16.048 19.192 15.984 19.96 15.984ZM41.8566 16.608C42.1766 16.608 42.5446 16.672 42.9606 16.8C43.4086 16.896 43.8086 17.04 44.1606 17.232C44.5126 17.392 44.8006 17.568 45.0246 17.76C45.2806 17.952 45.4086 18.128 45.4086 18.288C44.7686 19.632 44.1766 20.992 43.6326 22.368C43.0886 23.712 42.6246 25.008 42.2406 26.256C41.8566 27.504 41.5526 28.672 41.3286 29.76C41.1366 30.848 41.0406 31.792 41.0406 32.592C41.0406 33.488 41.1366 34.24 41.3286 34.848C41.5206 35.424 41.8406 35.84 42.2886 36.096C41.9046 36.352 41.4086 36.56 40.8006 36.72C40.1926 36.88 39.6486 36.96 39.1686 36.96C37.4406 36.96 36.5766 35.776 36.5766 33.408C36.5766 31.584 37.1846 29.088 38.4006 25.92C37.7606 27.392 37.0246 28.784 36.1926 30.096C35.3606 31.376 34.5126 32.512 33.6486 33.504C32.7846 34.496 31.9046 35.312 31.0086 35.952C30.1446 36.56 29.3446 36.928 28.6086 37.056C27.4246 36.992 26.4646 36.432 25.7286 35.376C24.9926 34.288 24.6246 32.912 24.6246 31.248C24.6246 29.456 25.0086 27.568 25.7766 25.584C26.5446 23.6 27.5206 21.76 28.7046 20.064C29.9206 18.368 31.2326 16.96 32.6406 15.84C34.0486 14.688 35.4086 14.08 36.7206 14.016C37.0406 14.112 37.3926 14.304 37.7766 14.592C38.1926 14.88 38.5766 15.216 38.9286 15.6C39.3126 15.984 39.6326 16.384 39.8886 16.8C40.1446 17.184 40.2886 17.52 40.3206 17.808C39.0406 18 37.7126 18.624 36.3366 19.68C34.9926 20.736 33.7606 22.016 32.6406 23.52C31.5526 24.992 30.6566 26.576 29.9526 28.272C29.2486 29.968 28.8966 31.552 28.8966 33.024C28.8966 33.632 29.1206 34.016 29.5686 34.176C30.4966 33.984 31.5686 33.2 32.7846 31.824C34.0006 30.416 35.4726 28.256 37.2006 25.344C37.5206 24.768 37.8726 24.128 38.2566 23.424C38.6726 22.72 39.0886 21.984 39.5046 21.216C39.9206 20.448 40.3206 19.68 40.7046 18.912C41.1206 18.112 41.5046 17.344 41.8566 16.608ZM55.6195 12.72C56.4515 12.976 57.2355 13.552 57.9715 14.448C58.7075 15.312 59.2515 16.272 59.6035 17.328C59.2515 18.192 58.7075 19.232 57.9715 20.448C57.2355 21.664 56.4995 22.912 55.7635 24.192C55.0275 25.44 54.3555 26.64 53.7475 27.792C53.1715 28.912 52.8355 29.84 52.7395 30.576C53.2515 30.032 53.8115 29.408 54.4195 28.704C55.0595 27.968 55.6675 27.248 56.2435 26.544C56.8515 25.808 57.4115 25.152 57.9235 24.576C58.4355 23.968 58.8355 23.52 59.1235 23.232C59.7315 22.592 60.4515 21.856 61.2835 21.024C62.1155 20.16 62.9795 19.36 63.8755 18.624C64.8035 17.856 65.7315 17.216 66.6595 16.704C67.5875 16.16 68.4355 15.888 69.2035 15.888C70.0355 15.888 70.7235 16.176 71.2675 16.752C71.8435 17.296 72.2915 17.872 72.6115 18.48C72.6115 18.544 72.4835 18.64 72.2275 18.768C72.0035 18.864 71.6675 19.168 71.2195 19.68C70.7715 20.256 70.2595 21.056 69.6835 22.08C69.1395 23.072 68.5955 24.16 68.0515 25.344C67.5395 26.496 67.1075 27.68 66.7555 28.896C66.4035 30.112 66.2275 31.216 66.2275 32.208C66.2275 33.008 66.3235 33.52 66.5155 33.744C66.7395 33.968 67.0435 34.08 67.4275 34.08C67.7795 34.08 68.1475 34 68.5315 33.84C68.9155 33.68 69.2195 33.6 69.4435 33.6C69.5715 33.664 69.6675 33.808 69.7315 34.032C69.8275 34.224 69.8755 34.4 69.8755 34.56C69.6195 34.784 69.3155 35.008 68.9635 35.232C68.6115 35.456 68.2435 35.664 67.8595 35.856C67.4755 36.048 67.0915 36.208 66.7075 36.336C66.3555 36.464 66.0355 36.528 65.7475 36.528C64.8195 36.528 64.0515 36.384 63.4435 36.096C62.8675 35.84 62.4035 35.488 62.0515 35.04C61.7315 34.592 61.5075 34.064 61.3795 33.456C61.2515 32.816 61.1875 32.144 61.1875 31.44C61.1875 31.056 61.2195 30.624 61.2835 30.144C61.3475 29.664 61.4755 29.104 61.6675 28.464C61.8595 27.792 62.1315 27.008 62.4835 26.112C62.8355 25.184 63.2835 24.08 63.8275 22.8C63.7635 22.8 63.3315 23.024 62.5315 23.472C61.7315 23.92 60.8675 24.608 59.9395 25.536C58.4355 26.976 57.0755 28.4 55.8595 29.808C54.6755 31.216 53.4595 32.784 52.2115 34.512C51.5075 35.504 50.8835 36.336 50.3395 37.008C49.8275 37.712 49.3795 38.176 48.9955 38.4C48.3235 38.016 47.8275 37.472 47.5075 36.768C47.1875 36.096 46.9475 35.392 46.7875 34.656C46.7875 34.048 46.8675 33.28 47.0275 32.352C47.2195 31.424 47.4595 30.4 47.7475 29.28C48.0675 28.128 48.4515 26.928 48.8995 25.68C49.3475 24.432 49.8435 23.184 50.3875 21.936C51.6035 19.12 52.7075 16.912 53.6995 15.312C54.7235 13.712 55.3635 12.848 55.6195 12.72ZM76.5974 17.616C76.4374 17.424 76.2934 17.024 76.1654 16.416C76.0374 15.776 75.9734 15.232 75.9734 14.784C76.8054 14.848 77.6054 14.912 78.3734 14.976C79.1414 15.008 79.8454 15.04 80.4854 15.072C80.9654 14.112 81.4774 13.168 82.0214 12.24C82.5974 11.28 83.1414 10.416 83.6534 9.648C84.1974 8.848 84.6934 8.176 85.1414 7.632C85.6214 7.088 85.9894 6.736 86.2454 6.576C86.5654 6.576 86.9654 6.64 87.4454 6.768C87.9574 6.864 88.4694 7.008 88.9814 7.2C89.4934 7.36 89.9574 7.536 90.3734 7.728C90.7894 7.92 91.0774 8.112 91.2374 8.304C90.2774 9.52 89.4454 10.656 88.7414 11.712C88.0694 12.736 87.3334 13.92 86.5334 15.264C87.1734 15.264 87.8134 15.248 88.4534 15.216C89.1254 15.184 89.7974 15.136 90.4694 15.072C90.6294 15.232 90.7574 15.44 90.8534 15.696C90.9494 15.92 90.9974 16.16 90.9974 16.416C89.4294 16.992 87.5254 17.312 85.2854 17.376C84.4854 18.912 83.7654 20.448 83.1254 21.984C82.5174 23.488 81.9894 24.944 81.5414 26.352C81.1254 27.76 80.7894 29.088 80.5334 30.336C80.3094 31.584 80.1974 32.704 80.1974 33.696C80.1974 35.104 80.7254 35.888 81.7814 36.048C82.7414 35.92 83.6534 35.68 84.5174 35.328C85.3814 34.976 86.1494 34.528 86.8214 33.984C87.0134 34.272 87.1254 34.512 87.1574 34.704C86.9654 34.992 86.6294 35.328 86.1494 35.712C85.7014 36.096 85.2054 36.464 84.6614 36.816C84.1174 37.2 83.5894 37.52 83.0774 37.776C82.5654 38.032 82.1814 38.176 81.9254 38.208C81.1254 38.176 80.3254 38 79.5254 37.68C78.7254 37.36 77.9894 36.96 77.3174 36.48C76.6774 36 76.1494 35.472 75.7334 34.896C75.3174 34.288 75.1094 33.696 75.1094 33.12C75.1094 32.352 75.2054 31.392 75.3974 30.24C75.6214 29.056 75.9254 27.776 76.3094 26.4C76.6934 25.024 77.1414 23.584 77.6534 22.08C78.1654 20.576 78.7254 19.088 79.3334 17.616H76.5974ZM107.2 16.608C107.52 16.608 107.888 16.672 108.304 16.8C108.752 16.896 109.152 17.04 109.504 17.232C109.856 17.392 110.144 17.568 110.368 17.76C110.624 17.952 110.752 18.128 110.752 18.288C110.112 19.632 109.52 20.992 108.976 22.368C108.432 23.712 107.968 25.008 107.584 26.256C107.2 27.504 106.896 28.672 106.672 29.76C106.48 30.848 106.384 31.792 106.384 32.592C106.384 33.488 106.48 34.24 106.672 34.848C106.864 35.424 107.184 35.84 107.632 36.096C107.248 36.352 106.752 36.56 106.144 36.72C105.536 36.88 104.992 36.96 104.512 36.96C102.784 36.96 101.92 35.776 101.92 33.408C101.92 31.584 102.528 29.088 103.744 25.92C103.104 27.392 102.368 28.784 101.536 30.096C100.704 31.376 99.8564 32.512 98.9924 33.504C98.1284 34.496 97.2484 35.312 96.3524 35.952C95.4884 36.56 94.6884 36.928 93.9524 37.056C92.7684 36.992 91.8084 36.432 91.0724 35.376C90.3364 34.288 89.9684 32.912 89.9684 31.248C89.9684 29.456 90.3524 27.568 91.1204 25.584C91.8884 23.6 92.8644 21.76 94.0484 20.064C95.2644 18.368 96.5764 16.96 97.9844 15.84C99.3924 14.688 100.752 14.08 102.064 14.016C102.384 14.112 102.736 14.304 103.12 14.592C103.536 14.88 103.92 15.216 104.272 15.6C104.656 15.984 104.976 16.384 105.232 16.8C105.488 17.184 105.632 17.52 105.664 17.808C104.384 18 103.056 18.624 101.68 19.68C100.336 20.736 99.1044 22.016 97.9844 23.52C96.8964 24.992 96.0004 26.576 95.2964 28.272C94.5924 29.968 94.2404 31.552 94.2404 33.024C94.2404 33.632 94.4644 34.016 94.9124 34.176C95.8404 33.984 96.9124 33.2 98.1284 31.824C99.3444 30.416 100.816 28.256 102.544 25.344C102.864 24.768 103.216 24.128 103.6 23.424C104.016 22.72 104.432 21.984 104.848 21.216C105.264 20.448 105.664 19.68 106.048 18.912C106.464 18.112 106.848 17.344 107.2 16.608ZM129.747 16.896C129.715 17.504 129.603 18.144 129.411 18.816C129.251 19.456 129.043 20.048 128.787 20.592C128.531 21.104 128.259 21.536 127.971 21.888C127.683 22.24 127.411 22.416 127.155 22.416C126.803 22.384 126.595 22.144 126.531 21.696C126.531 21.6 126.563 21.456 126.627 21.264C126.723 21.04 126.819 20.8 126.915 20.544C127.011 20.288 127.091 20.032 127.155 19.776C127.251 19.52 127.299 19.296 127.299 19.104C127.299 18.656 127.187 18.288 126.963 18C126.771 17.68 126.499 17.52 126.147 17.52C124.867 17.52 123.891 18.32 123.219 19.92C122.547 21.52 122.211 23.872 122.211 26.976C122.211 27.296 122.227 27.488 122.259 27.552C122.931 27.52 123.523 27.504 124.035 27.504C124.579 27.472 125.107 27.456 125.619 27.456C125.651 27.52 125.667 27.648 125.667 27.84C125.667 28.128 125.603 28.336 125.475 28.464C124.739 28.624 124.147 28.768 123.699 28.896C123.283 28.992 122.963 29.088 122.739 29.184C122.515 29.28 122.371 29.392 122.307 29.52C122.275 29.616 122.259 29.76 122.259 29.952C122.259 30.208 122.259 30.464 122.259 30.72C122.291 30.976 122.307 31.296 122.307 31.68C122.307 34.368 121.571 36.528 120.099 38.16C118.659 39.792 116.643 40.736 114.051 40.992C113.603 40.96 113.139 40.832 112.659 40.608C112.179 40.384 111.715 40.096 111.267 39.744C110.851 39.392 110.483 38.992 110.163 38.544C109.843 38.128 109.619 37.696 109.491 37.248C109.491 36.032 109.747 34.88 110.259 33.792C110.771 32.672 111.459 31.696 112.323 30.864C113.219 30 114.259 29.312 115.443 28.8C116.659 28.256 117.971 27.936 119.379 27.84C119.379 27.04 119.299 26.256 119.139 25.488C118.979 24.72 118.803 23.984 118.611 23.28C118.451 22.544 118.291 21.84 118.131 21.168C117.971 20.464 117.891 19.776 117.891 19.104C117.891 18.24 118.067 17.392 118.419 16.56C118.771 15.696 119.235 14.912 119.811 14.208C120.387 13.472 121.059 12.848 121.827 12.336C122.595 11.824 123.395 11.472 124.227 11.28C124.579 11.376 125.043 11.664 125.619 12.144C126.227 12.592 126.819 13.104 127.395 13.68C127.971 14.256 128.483 14.848 128.931 15.456C129.379 16.032 129.651 16.512 129.747 16.896ZM113.907 38.784C114.675 38.464 115.395 38 116.067 37.392C116.771 36.784 117.379 36.096 117.891 35.328C118.403 34.56 118.803 33.744 119.091 32.88C119.411 32.016 119.571 31.168 119.571 30.336C118.931 30.432 118.227 30.736 117.459 31.248C116.691 31.728 115.971 32.32 115.299 33.024C114.627 33.696 114.067 34.4 113.619 35.136C113.171 35.872 112.947 36.512 112.947 37.056C112.947 37.76 113.267 38.336 113.907 38.784ZM147.829 28.56C147.093 30.896 146.357 33.024 145.621 34.944C144.885 36.864 144.101 38.624 143.269 40.224C142.437 41.856 141.541 43.344 140.581 44.688C139.621 46.064 138.565 47.36 137.413 48.576C135.941 50.112 134.421 51.28 132.853 52.08C131.285 52.912 129.717 53.328 128.149 53.328C127.349 53.328 126.549 53.232 125.749 53.04C124.981 52.88 124.261 52.64 123.589 52.32C122.885 52.032 122.277 51.68 121.765 51.264C121.221 50.88 120.837 50.464 120.613 50.016C120.613 49.632 120.837 49.296 121.285 49.008C121.669 49.36 121.989 49.632 122.245 49.824C122.501 50.016 122.757 50.176 123.013 50.304C123.237 50.432 123.493 50.512 123.781 50.544C124.037 50.576 124.341 50.592 124.693 50.592C126.517 50.592 128.293 50.048 130.021 48.96C131.781 47.904 133.429 46.384 134.965 44.4C136.533 42.448 137.957 40.064 139.237 37.248C140.517 34.464 141.605 31.344 142.501 27.888C142.085 28.528 141.573 29.312 140.965 30.24C140.357 31.168 139.685 32.096 138.949 33.024C138.213 33.92 137.445 34.736 136.645 35.472C135.877 36.208 135.125 36.704 134.389 36.96C133.877 36.928 133.333 36.816 132.757 36.624C132.213 36.464 131.685 36.224 131.173 35.904C130.693 35.584 130.261 35.2 129.877 34.752C129.493 34.304 129.237 33.792 129.109 33.216C129.109 32.288 129.141 31.552 129.205 31.008C129.269 30.432 129.381 29.808 129.541 29.136C129.829 27.92 130.245 26.544 130.789 25.008C131.365 23.472 132.021 21.968 132.757 20.496C133.525 18.992 134.357 17.6 135.253 16.32C136.181 15.008 137.141 13.984 138.133 13.248C138.389 13.248 138.709 13.28 139.093 13.344C139.477 13.376 139.877 13.456 140.293 13.584C140.709 13.712 141.109 13.872 141.493 14.064C141.877 14.224 142.213 14.448 142.501 14.736C142.149 15.056 141.381 16.128 140.197 17.952C139.013 19.776 137.701 22.4 136.261 25.824C136.101 26.176 135.909 26.688 135.685 27.36C135.461 28.032 135.237 28.736 135.013 29.472C134.821 30.208 134.645 30.928 134.485 31.632C134.325 32.336 134.245 32.896 134.245 33.312C134.245 33.568 134.277 33.76 134.341 33.888C134.437 34.016 134.517 34.112 134.581 34.176C135.157 34.08 135.925 33.616 136.885 32.784C137.845 31.92 138.933 30.592 140.149 28.8C140.917 27.648 141.621 26.512 142.261 25.392C142.901 24.24 143.525 23.088 144.133 21.936C144.773 20.784 145.429 19.6 146.101 18.384C146.773 17.168 147.493 15.92 148.261 14.64C148.677 14.64 149.125 14.688 149.605 14.784C150.085 14.88 150.549 15.008 150.997 15.168C151.445 15.296 151.829 15.456 152.149 15.648C152.501 15.808 152.757 15.984 152.917 16.176C151.925 18.288 150.997 20.352 150.133 22.368C149.269 24.384 148.501 26.448 147.829 28.56Z" fill="white"/>
</svg>
